# xmcd
#
# Track frame offsets:
#	150
#	16589
#	37090
#	48950
#	63762
#	81197
#	97217
#	108353
#	119732
#	137157
#	152981
#	171801
#	189438
#
# Disc length: 2705 seconds
# Revision: 0
# Processed by: cddbd v1.5.2PL0 Copyright (c) Steve Scherf et al.
# Submitted via: dBpowerAMP V12.0
#
DISCID=ad0a8f0d
DTITLE=The JD Hobson Band - Where the Sun Don't Shine
DYEAR=2011
DGENRE=Country
TTITLE0=Last Kind Words
TTITLE1=Carter Cain
TTITLE2=Darkest Hour Has Passed
TTITLE3=Where the Sun Don't Shine
TTITLE4=Spoonful
TTITLE5=Belly of the Beast
TTITLE6=Big Mountain Blues
TTITLE7=Walking Out the Door Crying Blues
TTITLE8=Blues in the Bottle
TTITLE9=Sick in My Soul
TTITLE10=Desert Road
TTITLE11=Nobody's Dirty Business
TTITLE12=Good Time Girl
EXTD=
EXTT0=
EXTT1=
EXTT2=
EXTT3=
EXTT4=
EXTT5=
EXTT6=
EXTT7=
EXTT8=
EXTT9=
EXTT10=
EXTT11=
EXTT12=
PLAYORDER=
